<svg width="24" height="24" fill="none" xmlns="http://www.w3.org/2000/svg"><circle cx="12" cy="12" r="11" stroke="#23272E" stroke-width="2"/><path d="M11.88 15.9c-1.31 0-2-.93-2.15-2.05H8.1c.12 1.8 1.42 3.33 3.76 3.33 2.03 0 3.8-1 3.8-3.08 0-1.03-.53-2.03-1.75-2.48a2.52 2.52 0 001.49-2.28c0-1.9-1.68-2.67-3.38-2.67-2.24 0-3.64 1.27-3.79 3.2h1.62c.16-1.19.84-1.93 2.08-1.93.93 0 1.76.48 1.76 1.5 0 1.05-.78 1.57-2.35 1.57h-.42v1.38h.49c1.51 0 2.53.45 2.53 1.75 0 1.11-.88 1.75-2.06 1.75z" fill="#23272E"/></svg>