<svg xmlns="http://www.w3.org/2000/svg" xmlns:xlink="http://www.w3.org/1999/xlink" width="143.0938" height="37.1524"><path fill="#fff" d="M1.58 7.39L1.58 29.42L5.42 29.42L5.42 10.37L12.27 10.37L12.27 29.42L16.10 29.42L16.10 7.39ZM22.76 13.47L19.27 13.47L19.27 34.01L23.05 34.01L23.05 27.55C24.00 28.97 25.39 29.73 27.01 29.73C30.69 29.73 33.22 26.79 33.22 21.43C33.22 16.10 30.75 13.16 27.20 13.16C25.42 13.16 23.97 13.98 22.95 15.53ZM26.06 26.75C24.06 26.75 23.05 25.14 23.05 21.46C23.05 17.75 24.12 16.14 26.25 16.14C28.31 16.14 29.32 17.75 29.32 21.43C29.32 25.14 28.24 26.75 26.06 26.75ZM47.52 18.54C47.52 14.68 45.55 13.22 41.56 13.22C39.05 13.22 37.09 14.01 35.95 14.68L35.95 17.82C36.96 17.05 39.18 16.23 41.11 16.23C42.92 16.23 43.75 16.86 43.75 18.58L43.75 19.46L43.14 19.46C37.37 19.46 34.81 21.37 34.81 24.60C34.81 27.83 36.77 29.64 39.69 29.64C41.91 29.64 42.86 28.91 43.59 28.15L43.75 28.15C43.78 28.56 43.90 29.10 44.03 29.42L47.71 29.42C47.58 28.12 47.52 26.82 47.52 25.52ZM43.75 25.61C43.27 26.31 42.38 26.88 41.05 26.88C39.47 26.88 38.67 25.99 38.67 24.63C38.67 22.82 39.97 22.16 43.21 22.16L43.75 22.16ZM59.91 29.42L64.19 29.42L58.14 20.95L63.46 13.47L59.66 13.47L54.33 20.95L54.33 13.47L50.56 13.47L50.56 29.42L54.33 29.42L54.33 21.71ZM76.84 16.45L76.84 13.47L64.19 13.47L64.19 16.45L68.63 16.45L68.63 29.42L72.40 29.42L72.40 16.45ZM79.06 13.47L79.06 29.42L82.42 29.42L88.19 19.56L88.19 29.42L91.83 29.42L91.83 13.47L88.47 13.47L82.71 23.33L82.71 13.47ZM104.36 29.42L108.64 29.42L102.58 20.95L107.91 13.47L104.10 13.47L98.78 20.95L98.78 13.47L95.00 13.47L95.00 29.42L98.78 29.42L98.78 21.71ZM111.93 34.33C115.45 34.33 116.75 31.83 117.83 28.56L122.81 13.47L119.16 13.47L115.64 25.46L112.12 13.47L108.16 13.47L113.64 30.12C113.23 30.88 112.63 31.35 111.58 31.35C110.89 31.35 110.28 31.13 109.87 30.72L109.87 33.79C109.87 33.79 110.44 34.33 111.93 34.33ZM137.83 29.42L141.51 29.42L141.45 13.47L136.28 13.47L132.82 24.09L129.72 13.47L124.23 13.47L124.23 29.42L127.43 29.42L127.43 17.50L130.89 29.42L133.96 29.42L137.83 17.50Z"/></svg>